<mxfile host="app.diagrams.net" modified="2022-11-14T00:07:58.867Z" agent="5.0 (Windows NT 10.0; Win64; x64) AppleWebKit/537.36 (KHTML, like Gecko) Chrome/107.0.0.0 Safari/537.36" etag="w5Ry-yR2g6kU1fxm5q6F" version="20.5.3" type="github">
  <diagram name="Page-1" id="c4acf3e9-155e-7222-9cf6-157b1a14988f">
    <mxGraphModel dx="1268" dy="850" grid="0" gridSize="10" guides="1" tooltips="1" connect="1" arrows="1" fold="1" page="0" pageScale="1" pageWidth="850" pageHeight="1100" background="none" math="0" shadow="0">
      <root>
        <mxCell id="0" />
        <mxCell id="1" parent="0" />
        <mxCell id="CnyPr0yzkHjKj59UQDCq-1" value="JAVA / SPRING BOOT REST API" style="swimlane;" parent="1" vertex="1">
          <mxGeometry x="409" y="18" width="434.5" height="370" as="geometry" />
        </mxCell>
        <mxCell id="CnyPr0yzkHjKj59UQDCq-11" style="edgeStyle=orthogonalEdgeStyle;rounded=0;orthogonalLoop=1;jettySize=auto;html=1;exitX=0.5;exitY=1;exitDx=0;exitDy=0;" parent="CnyPr0yzkHjKj59UQDCq-1" source="CnyPr0yzkHjKj59UQDCq-2" edge="1">
          <mxGeometry relative="1" as="geometry">
            <mxPoint x="98" y="233" as="targetPoint" />
          </mxGeometry>
        </mxCell>
        <mxCell id="CnyPr0yzkHjKj59UQDCq-2" value="" style="ellipse;whiteSpace=wrap;html=1;" parent="CnyPr0yzkHjKj59UQDCq-1" vertex="1">
          <mxGeometry x="38" y="85" width="120" height="80" as="geometry" />
        </mxCell>
        <mxCell id="CnyPr0yzkHjKj59UQDCq-12" value="" style="image;html=1;image=img/lib/clip_art/computers/Database_128x128.png" parent="CnyPr0yzkHjKj59UQDCq-1" vertex="1">
          <mxGeometry x="285" y="92" width="127" height="108" as="geometry" />
        </mxCell>
        <mxCell id="CnyPr0yzkHjKj59UQDCq-18" style="edgeStyle=orthogonalEdgeStyle;rounded=0;orthogonalLoop=1;jettySize=auto;html=1;exitX=1;exitY=0.25;exitDx=0;exitDy=0;entryX=0;entryY=0;entryDx=0;entryDy=0;" parent="CnyPr0yzkHjKj59UQDCq-1" source="CnyPr0yzkHjKj59UQDCq-13" target="CnyPr0yzkHjKj59UQDCq-14" edge="1">
          <mxGeometry relative="1" as="geometry" />
        </mxCell>
        <mxCell id="CnyPr0yzkHjKj59UQDCq-31" style="edgeStyle=orthogonalEdgeStyle;rounded=0;orthogonalLoop=1;jettySize=auto;html=1;exitX=0.75;exitY=0;exitDx=0;exitDy=0;entryX=0.75;entryY=0.975;entryDx=0;entryDy=0;entryPerimeter=0;fontSize=17;" parent="CnyPr0yzkHjKj59UQDCq-1" source="CnyPr0yzkHjKj59UQDCq-13" target="CnyPr0yzkHjKj59UQDCq-2" edge="1">
          <mxGeometry relative="1" as="geometry" />
        </mxCell>
        <mxCell id="CnyPr0yzkHjKj59UQDCq-13" value="" style="rounded=0;whiteSpace=wrap;html=1;" parent="CnyPr0yzkHjKj59UQDCq-1" vertex="1">
          <mxGeometry x="38" y="250" width="120" height="60" as="geometry" />
        </mxCell>
        <mxCell id="CnyPr0yzkHjKj59UQDCq-21" style="edgeStyle=orthogonalEdgeStyle;rounded=0;orthogonalLoop=1;jettySize=auto;html=1;exitX=0;exitY=1;exitDx=0;exitDy=0;entryX=1;entryY=0.75;entryDx=0;entryDy=0;" parent="CnyPr0yzkHjKj59UQDCq-1" source="CnyPr0yzkHjKj59UQDCq-14" target="CnyPr0yzkHjKj59UQDCq-13" edge="1">
          <mxGeometry relative="1" as="geometry" />
        </mxCell>
        <mxCell id="CnyPr0yzkHjKj59UQDCq-14" value="" style="rhombus;whiteSpace=wrap;html=1;" parent="CnyPr0yzkHjKj59UQDCq-1" vertex="1">
          <mxGeometry x="205" y="224.5" width="110" height="111" as="geometry" />
        </mxCell>
        <mxCell id="CnyPr0yzkHjKj59UQDCq-25" value="" style="endArrow=classic;html=1;rounded=0;" parent="CnyPr0yzkHjKj59UQDCq-1" edge="1">
          <mxGeometry width="50" height="50" relative="1" as="geometry">
            <mxPoint x="272" y="235" as="sourcePoint" />
            <mxPoint x="315" y="194" as="targetPoint" />
          </mxGeometry>
        </mxCell>
        <mxCell id="CnyPr0yzkHjKj59UQDCq-26" value="" style="endArrow=classic;html=1;rounded=0;exitX=0.5;exitY=1;exitDx=0;exitDy=0;" parent="CnyPr0yzkHjKj59UQDCq-1" source="CnyPr0yzkHjKj59UQDCq-12" edge="1">
          <mxGeometry width="50" height="50" relative="1" as="geometry">
            <mxPoint x="380" y="195" as="sourcePoint" />
            <mxPoint x="301" y="267" as="targetPoint" />
          </mxGeometry>
        </mxCell>
        <mxCell id="CnyPr0yzkHjKj59UQDCq-27" value="&lt;b&gt;&lt;font style=&quot;font-size: 17px;&quot;&gt;CONTROLLER&lt;/font&gt;&lt;/b&gt;" style="text;html=1;resizable=0;autosize=1;align=center;verticalAlign=middle;points=[];fillColor=none;strokeColor=none;rounded=0;" parent="CnyPr0yzkHjKj59UQDCq-1" vertex="1">
          <mxGeometry x="30" y="51" width="136" height="32" as="geometry" />
        </mxCell>
        <mxCell id="CnyPr0yzkHjKj59UQDCq-30" value="&lt;b&gt;&lt;font style=&quot;font-size: 17px;&quot;&gt;BANCO DE DADOS&lt;/font&gt;&lt;/b&gt;" style="text;html=1;resizable=0;autosize=1;align=center;verticalAlign=middle;points=[];fillColor=none;strokeColor=none;rounded=0;" parent="CnyPr0yzkHjKj59UQDCq-1" vertex="1">
          <mxGeometry x="259" y="58" width="175" height="32" as="geometry" />
        </mxCell>
        <mxCell id="CnyPr0yzkHjKj59UQDCq-29" value="&lt;b&gt;&lt;font style=&quot;font-size: 17px;&quot;&gt;SERVICE&lt;/font&gt;&lt;/b&gt;" style="text;html=1;resizable=0;autosize=1;align=center;verticalAlign=middle;points=[];fillColor=none;strokeColor=none;rounded=0;" parent="CnyPr0yzkHjKj59UQDCq-1" vertex="1">
          <mxGeometry x="52" y="310" width="92" height="32" as="geometry" />
        </mxCell>
        <mxCell id="CnyPr0yzkHjKj59UQDCq-28" value="&lt;b&gt;&lt;font style=&quot;font-size: 17px;&quot;&gt;DAO/ REPOSITORY&lt;/font&gt;&lt;/b&gt;" style="text;html=1;resizable=0;autosize=1;align=center;verticalAlign=middle;points=[];fillColor=none;strokeColor=none;rounded=0;" parent="CnyPr0yzkHjKj59UQDCq-1" vertex="1">
          <mxGeometry x="260.5" y="320" width="176" height="32" as="geometry" />
        </mxCell>
        <mxCell id="CnyPr0yzkHjKj59UQDCq-32" value="validações" style="text;html=1;resizable=0;autosize=1;align=center;verticalAlign=middle;points=[];fillColor=none;strokeColor=none;rounded=0;fontSize=17;labelBorderColor=none;labelBackgroundColor=none;" parent="CnyPr0yzkHjKj59UQDCq-1" vertex="1">
          <mxGeometry x="49" y="109" width="98" height="32" as="geometry" />
        </mxCell>
        <mxCell id="CnyPr0yzkHjKj59UQDCq-33" value="Regras de&lt;br&gt;Negocio" style="text;html=1;resizable=0;autosize=1;align=center;verticalAlign=middle;points=[];fillColor=none;strokeColor=none;rounded=0;fontSize=17;labelBorderColor=none;labelBackgroundColor=none;" parent="CnyPr0yzkHjKj59UQDCq-1" vertex="1">
          <mxGeometry x="50" y="257" width="96" height="53" as="geometry" />
        </mxCell>
        <mxCell id="CnyPr0yzkHjKj59UQDCq-34" value="SQL / JPA" style="text;html=1;resizable=0;autosize=1;align=center;verticalAlign=middle;points=[];fillColor=none;strokeColor=none;rounded=0;fontSize=17;labelBorderColor=none;labelBackgroundColor=none;" parent="CnyPr0yzkHjKj59UQDCq-1" vertex="1">
          <mxGeometry x="212.5" y="264" width="95" height="32" as="geometry" />
        </mxCell>
        <mxCell id="CnyPr0yzkHjKj59UQDCq-35" value="&lt;b&gt;&lt;font style=&quot;font-size: 17px;&quot;&gt;POSTEGRESQL&lt;/font&gt;&lt;/b&gt;" style="text;html=1;resizable=0;autosize=1;align=center;verticalAlign=middle;points=[];fillColor=none;strokeColor=none;rounded=0;" parent="CnyPr0yzkHjKj59UQDCq-1" vertex="1">
          <mxGeometry x="273" y="36" width="147" height="32" as="geometry" />
        </mxCell>
        <mxCell id="CnyPr0yzkHjKj59UQDCq-36" value="DADOS" style="text;html=1;resizable=0;autosize=1;align=center;verticalAlign=middle;points=[];fillColor=none;strokeColor=none;rounded=0;fontSize=17;labelBorderColor=none;labelBackgroundColor=none;" parent="CnyPr0yzkHjKj59UQDCq-1" vertex="1">
          <mxGeometry x="233" y="144" width="78" height="32" as="geometry" />
        </mxCell>
        <mxCell id="CnyPr0yzkHjKj59UQDCq-37" value="" style="image;html=1;image=img/lib/clip_art/computers/Laptop_128x128.png;labelBackgroundColor=none;labelBorderColor=none;fontSize=17;" parent="1" vertex="1">
          <mxGeometry x="9" y="-7" width="107" height="112" as="geometry" />
        </mxCell>
        <mxCell id="CnyPr0yzkHjKj59UQDCq-39" value="" style="verticalLabelPosition=bottom;verticalAlign=top;html=1;shadow=0;dashed=0;strokeWidth=1;shape=mxgraph.android.phone2;labelBackgroundColor=none;labelBorderColor=none;fontSize=17;fillColor=#647687;fontColor=#ffffff;strokeColor=#314354;" parent="1" vertex="1">
          <mxGeometry x="40" y="158" width="41" height="85" as="geometry" />
        </mxCell>
        <mxCell id="CnyPr0yzkHjKj59UQDCq-40" value="APLICATIVO" style="rounded=1;html=1;shadow=0;dashed=0;whiteSpace=wrap;fontSize=10;fillColor=#666666;align=center;strokeColor=#4D4D4D;fontColor=#ffffff;labelBackgroundColor=none;labelBorderColor=none;" parent="1" vertex="1">
          <mxGeometry x="7.75" y="260" width="105.5" height="16.88" as="geometry" />
        </mxCell>
        <mxCell id="CnyPr0yzkHjKj59UQDCq-45" value="TELA/CLIENTE/SISTEMA" style="rounded=1;html=1;shadow=0;dashed=0;whiteSpace=wrap;fontSize=10;fillColor=#666666;align=center;strokeColor=#4D4D4D;fontColor=#ffffff;labelBackgroundColor=none;labelBorderColor=none;" parent="1" vertex="1">
          <mxGeometry x="-18.5" y="99" width="158" height="16.88" as="geometry" />
        </mxCell>
        <mxCell id="CnyPr0yzkHjKj59UQDCq-46" value="" style="aspect=fixed;html=1;points=[];align=center;image;fontSize=12;image=img/lib/azure2/ai_machine_learning/Cognitive_Services.svg;labelBackgroundColor=none;labelBorderColor=none;" parent="1" vertex="1">
          <mxGeometry x="17.29" y="311" width="86.42" height="61" as="geometry" />
        </mxCell>
        <mxCell id="CnyPr0yzkHjKj59UQDCq-47" value="OUTRAS APIs" style="rounded=1;html=1;shadow=0;dashed=0;whiteSpace=wrap;fontSize=10;fillColor=#666666;align=center;strokeColor=#4D4D4D;fontColor=#ffffff;labelBackgroundColor=none;labelBorderColor=none;" parent="1" vertex="1">
          <mxGeometry x="9.75" y="385" width="105.5" height="16.88" as="geometry" />
        </mxCell>
        <mxCell id="CnyPr0yzkHjKj59UQDCq-48" value="" style="endArrow=classic;html=1;rounded=0;fontSize=17;" parent="1" edge="1">
          <mxGeometry width="50" height="50" relative="1" as="geometry">
            <mxPoint x="139.5" y="25" as="sourcePoint" />
            <mxPoint x="438" y="114" as="targetPoint" />
          </mxGeometry>
        </mxCell>
        <mxCell id="CnyPr0yzkHjKj59UQDCq-49" value="" style="endArrow=classic;html=1;rounded=0;fontSize=17;" parent="1" edge="1">
          <mxGeometry width="50" height="50" relative="1" as="geometry">
            <mxPoint x="431" y="124" as="sourcePoint" />
            <mxPoint x="136" y="46" as="targetPoint" />
          </mxGeometry>
        </mxCell>
        <mxCell id="CnyPr0yzkHjKj59UQDCq-50" value="" style="endArrow=classic;html=1;rounded=0;fontSize=17;" parent="1" edge="1">
          <mxGeometry width="50" height="50" relative="1" as="geometry">
            <mxPoint x="139.5" y="321" as="sourcePoint" />
            <mxPoint x="438" y="175" as="targetPoint" />
          </mxGeometry>
        </mxCell>
        <mxCell id="CnyPr0yzkHjKj59UQDCq-51" value="" style="endArrow=classic;html=1;rounded=0;fontSize=17;" parent="1" edge="1">
          <mxGeometry width="50" height="50" relative="1" as="geometry">
            <mxPoint x="143" y="177" as="sourcePoint" />
            <mxPoint x="435" y="142" as="targetPoint" />
          </mxGeometry>
        </mxCell>
        <mxCell id="CnyPr0yzkHjKj59UQDCq-52" value="" style="endArrow=classic;html=1;rounded=0;fontSize=17;" parent="1" edge="1">
          <mxGeometry width="50" height="50" relative="1" as="geometry">
            <mxPoint x="434" y="169" as="sourcePoint" />
            <mxPoint x="135" y="311" as="targetPoint" />
          </mxGeometry>
        </mxCell>
        <mxCell id="CnyPr0yzkHjKj59UQDCq-53" value="" style="endArrow=classic;html=1;rounded=0;fontSize=17;" parent="1" edge="1">
          <mxGeometry width="50" height="50" relative="1" as="geometry">
            <mxPoint x="428" y="135" as="sourcePoint" />
            <mxPoint x="141" y="166" as="targetPoint" />
          </mxGeometry>
        </mxCell>
        <mxCell id="CnyPr0yzkHjKj59UQDCq-54" value="" style="rounded=1;whiteSpace=wrap;html=1;labelBackgroundColor=none;labelBorderColor=none;fontSize=17;" parent="1" vertex="1">
          <mxGeometry x="194" y="127.88" width="149" height="68" as="geometry" />
        </mxCell>
        <mxCell id="CnyPr0yzkHjKj59UQDCq-55" value="&lt;b&gt;&lt;font style=&quot;font-size: 17px;&quot;&gt;REQUISICAO&lt;br&gt;POST/GET/PUT&lt;br&gt;&lt;/font&gt;&lt;/b&gt;" style="text;html=1;resizable=0;autosize=1;align=center;verticalAlign=middle;points=[];fillColor=none;strokeColor=none;rounded=0;" parent="1" vertex="1">
          <mxGeometry x="197" y="135.38" width="143" height="53" as="geometry" />
        </mxCell>
        <mxCell id="i44bf3ps_DrmcJFprcQC-2" value="" style="rounded=1;whiteSpace=wrap;html=1;labelBackgroundColor=none;labelBorderColor=none;fontSize=17;" vertex="1" parent="1">
          <mxGeometry x="203" y="299" width="149" height="68" as="geometry" />
        </mxCell>
        <mxCell id="i44bf3ps_DrmcJFprcQC-1" value="&lt;b&gt;&lt;font style=&quot;font-size: 17px;&quot;&gt;RESPOSTA&lt;br&gt;JSON&lt;/font&gt;&lt;/b&gt;" style="text;html=1;resizable=0;autosize=1;align=center;verticalAlign=middle;points=[];fillColor=none;strokeColor=none;rounded=0;" vertex="1" parent="1">
          <mxGeometry x="222.5" y="306.5" width="110" height="53" as="geometry" />
        </mxCell>
      </root>
    </mxGraphModel>
  </diagram>
</mxfile>
